<svg xmlns="http://www.w3.org/2000/svg" version="1.1" xmlns:xlink="http://www.w3.org/1999/xlink" xmlns:svgjs="http://svgjs.dev/svgjs" width="2000" height="1247" viewBox="0 0 2000 1247"><g transform="matrix(1,0,0,1,-1.2121212121212466,0.5048582995951847)"><svg viewBox="0 0 396 247" data-background-color="#444444" preserveAspectRatio="xMidYMid meet" height="1247" width="2000" xmlns="http://www.w3.org/2000/svg" xmlns:xlink="http://www.w3.org/1999/xlink"><g id="tight-bounds" transform="matrix(1,0,0,1,0.2400000000000091,-0.09999999999999432)"><svg viewBox="0 0 395.52 247.2" height="247.2" width="395.52"><g><svg></svg></g><g><svg viewBox="0 0 395.52 247.2" height="247.2" width="395.52"><g transform="matrix(1,0,0,1,75.54432,75.12936367929561)"><svg viewBox="0 0 244.43135999999998 96.94127264140877" height="96.94127264140877" width="244.43135999999998"><g><svg viewBox="0 0 385.1989980860369 152.7696" height="96.94127264140877" width="244.43135999999998"><g><svg viewBox="0 0 226.37288067226888 152.7696" height="152.7696" width="226.37288067226888"><g id="textblocktransform"><svg viewBox="0 0 226.37288067226888 152.7696" height="152.7696" width="226.37288067226888" id="textblock"><g><svg viewBox="0 0 226.37288067226888 152.7696" height="152.7696" width="226.37288067226888"><g transform="matrix(1,0,0,1,0,0)"><svg width="226.37288067226888" viewBox="2.5999999046325684 -35.20000076293945 52.900001525878906 35.70000076293945" height="152.7696" data-palette-color="#ffffff"><path d="M12.5 0.5Q7.75 0.5 5.18-2.73 2.6-5.95 2.6-12.3L2.6-12.3Q2.6-18.75 5.23-24 7.85-29.25 12.18-32.23 16.5-35.2 21.45-35.2L21.45-35.2Q24.6-35.2 26.5-34.02 28.4-32.85 28.4-30.8L28.4-30.8Q28.4-29.5 27.4-27.65L27.4-27.65Q26.95-26.95 26.55-26.53 26.15-26.1 25.65-26.1L25.65-26.1Q25.2-26.1 25.05-26.48 24.9-26.85 24.8-27.45 24.7-28.05 24.6-28.4L24.6-28.4Q23.85-31.45 19.95-31.45L19.95-31.45Q16.55-31.45 13.95-29.18 11.35-26.9 9.95-22.88 8.55-18.85 8.55-13.75L8.55-13.75Q8.55-8.8 10.08-6.45 11.6-4.1 14.9-4.1L14.9-4.1Q18.15-4.1 20.1-5.85 22.05-7.6 23.55-10.25L23.55-10.25Q24-11.1 24.6-11.1L24.6-11.1Q25.1-11.1 25.1-10.45L25.1-10.45Q25.1-10 24.8-9L24.8-9Q23.5-4.6 20.18-2.05 16.85 0.5 12.5 0.5L12.5 0.5ZM30 0Q29.5 0 29.5-0.7L29.5-0.7Q29.5-1.65 30.05-2.4 30.6-3.15 31.55-3.9L31.55-3.9Q32.55-4.7 32.92-5.25 33.3-5.8 33.5-6.95L33.5-6.95 36.25-25.25Q36.4-26.2 37.27-27.18 38.15-28.15 39.35-28.78 40.55-29.4 41.75-29.4L41.75-29.4Q42.55-29.4 42.55-28.9L42.55-28.9Q42.55-28.6 42.1-27.68 41.65-26.75 41.35-24.85L41.35-24.85 40.6-19.65 44.75-19.65Q46.95-20.15 48.27-22.08 49.6-24 49.6-26.55L49.6-26.55Q49.6-29.1 48.05-30.28 46.5-31.45 43.2-31.45L43.2-31.45Q39.1-31.45 36.52-30.05 33.95-28.65 31.95-26.55L31.95-26.55Q31.3-25.85 30.97-25.6 30.65-25.35 30.3-25.35L30.3-25.35Q29.75-25.35 29.75-26L29.75-26Q29.75-26.2 30-27.05L30-27.05Q30.9-29.2 33-31.08 35.1-32.95 38.27-34.08 41.45-35.2 45.25-35.2L45.25-35.2Q50.15-35.2 52.82-33.27 55.5-31.35 55.5-27.65L55.5-27.65Q55.5-22.2 49.85-18.85L49.85-18.85Q52.3-17.25 53.62-15.2 54.95-13.15 54.95-10.75L54.95-10.75Q54.95-7.7 53-5.23 51.05-2.75 47.97-1.38 44.9 0 41.65 0L41.65 0Q40.45 0 36.95-0.45L36.95-0.45Q34.45-0.75 33.8-0.75L33.8-0.75Q32.85-0.75 31.1-0.25L31.1-0.25Q30.35 0 30 0L30 0ZM42.3-4.35Q45.65-4.35 47.4-5.68 49.15-7 49.15-9.6L49.15-9.6Q49.15-13.65 45.15-15.85L45.15-15.85 39.95-15.85 38.7-7.2Q38.6-6.35 38.42-5.88 38.25-5.4 37.9-4.9L37.9-4.9 37.95-4.85Q38.65-4.65 39.92-4.5 41.2-4.35 42.3-4.35L42.3-4.35Z" opacity="1" transform="matrix(1,0,0,1,0,0)" fill="#ffffff" class="undefined-text-0" data-fill-palette-color="primary" id="text-0"></path></svg></g></svg></g></svg></g></svg></g><g transform="matrix(1,0,0,1,262.43811676186886,15.004359337915979)"><svg viewBox="0 0 122.76088132416804 122.76088132416804" height="122.76088132416804" width="122.76088132416804"><g><svg></svg></g><g id="icon-0"><svg viewBox="0 0 122.76088132416804 122.76088132416804" height="122.76088132416804" width="122.76088132416804"><g><rect width="111.62146801882687" height="111.62146801882687" x="5.5697066526705825" y="5.5697066526705825" fill="#00d1cd" data-fill-palette-color="accent"></rect><rect width="111.62146801882687" height="111.62146801882687" x="-4.440892098500626e-15" y="-4.440892098500626e-15" fill="#00d1cd" opacity="0.5" data-fill-palette-color="accent"></rect></g><g transform="matrix(1,0,0,1,15.913447579058818,51.57383431084329)"><svg viewBox="0 0 90.9339861660504 19.61321270248146" height="19.61321270248146" width="90.9339861660504"><g><svg xmlns="http://www.w3.org/2000/svg" data-name="Your Icon" viewBox="24.5 39 51 11" x="0" y="0" height="19.61321270248146" width="90.9339861660504" class="icon-s-0" data-fill-palette-color="background" id="s-0"><path d="M42 45H27a2.5 2.5 0 0 0 0 5H42a2.5 2.5 0 0 0 0-5Z" fill="#444444" data-fill-palette-color="background"></path><circle cx="52" cy="42.5" r="3.5" fill="#444444" data-fill-palette-color="background"></circle><circle cx="62" cy="42.5" r="3.5" fill="#444444" data-fill-palette-color="background"></circle><circle cx="72" cy="42.5" r="3.5" fill="#444444" data-fill-palette-color="background"></circle></svg></g></svg></g></svg></g></svg></g></svg></g></svg></g><g><path d="M245.816 0c68.262 0 123.6 55.338 123.6 123.6 0 68.262-55.338 123.6-123.6 123.6-46.524 0-87.044-25.705-108.134-63.687l5.029 0c20.657 35.473 59.097 59.315 103.105 59.316 65.848 0 119.229-53.381 119.229-119.229 0-65.848-53.381-119.229-119.229-119.229-44.008 0-82.447 23.843-103.105 59.316l-5.029 0c21.09-37.982 61.61-63.687 108.134-63.687z" fill="#ffffff" stroke="transparent" data-fill-palette-color="tertiary"></path></g></svg></g><defs></defs></svg><rect width="395.52" height="247.2" fill="none" stroke="none" visibility="hidden"></rect></g></svg></g></svg>